<svg width="40" height="40" viewBox="0 0 40 40" fill="none" xmlns="http://www.w3.org/2000/svg">
<path d="M15 29.9999C14.0833 29.9999 13.2986 29.6735 12.6458 29.0208C11.9931 28.368 11.6667 27.5833 11.6667 26.6666V6.66658C11.6667 5.74992 11.9931 4.9652 12.6458 4.31242C13.2986 3.65964 14.0833 3.33325 15 3.33325H30C30.9167 3.33325 31.7014 3.65964 32.3542 4.31242C33.0069 4.9652 33.3333 5.74992 33.3333 6.66658V26.6666C33.3333 27.5833 33.0069 28.368 32.3542 29.0208C31.7014 29.6735 30.9167 29.9999 30 29.9999H15ZM15 26.6666H30V6.66658H15V26.6666ZM8.33333 36.6666C7.41667 36.6666 6.63194 36.3402 5.97917 35.6874C5.32639 35.0346 5 34.2499 5 33.3333V11.6666C5 11.1944 5.15972 10.7985 5.47917 10.4791C5.79861 10.1596 6.19444 9.99992 6.66667 9.99992C7.13889 9.99992 7.53472 10.1596 7.85417 10.4791C8.17361 10.7985 8.33333 11.1944 8.33333 11.6666V33.3333H25C25.4722 33.3333 25.8681 33.493 26.1875 33.8124C26.5069 34.1319 26.6667 34.5277 26.6667 34.9999C26.6667 35.4721 26.5069 35.868 26.1875 36.1874C25.8681 36.5069 25.4722 36.6666 25 36.6666H8.33333Z" fill="#1D1D1D"/>
</svg>
